<svg width="30" height="28" viewBox="0 0 30 28" fill="none" xmlns="http://www.w3.org/2000/svg">
<g filter="url(#filter0_d_11_280)">
<path d="M12 5L10.17 7H7C5.9 7 5 7.9 5 9V21C5 22.1 5.9 23 7 23H23C24.1 23 25 22.1 25 21V9C25 7.9 24.1 7 23 7H19.83L18 5H12ZM15 20C12.24 20 10 17.76 10 15C10 12.24 12.24 10 15 10C17.76 10 20 12.24 20 15C20 17.76 17.76 20 15 20Z" fill="white"/>
</g>
<defs>
<filter id="filter0_d_11_280" x="0" y="0" width="30" height="28" filterUnits="userSpaceOnUse" color-interpolation-filters="sRGB">
<feFlood flood-opacity="0" result="BackgroundImageFix"/>
<feColorMatrix in="SourceAlpha" type="matrix" values="0 0 0 0 0 0 0 0 0 0 0 0 0 0 0 0 0 0 127 0" result="hardAlpha"/>
<feOffset/>
<feGaussianBlur stdDeviation="2.5"/>
<feComposite in2="hardAlpha" operator="out"/>
<feColorMatrix type="matrix" values="0 0 0 0 0 0 0 0 0 0 0 0 0 0 0 0 0 0 0.25 0"/>
<feBlend mode="normal" in2="BackgroundImageFix" result="effect1_dropShadow_11_280"/>
<feBlend mode="normal" in="SourceGraphic" in2="effect1_dropShadow_11_280" result="shape"/>
</filter>
</defs>
</svg>
