<svg width="25" height="25" viewBox="0 0 25 25" fill="none" xmlns="http://www.w3.org/2000/svg">
<g clip-path="url(#clip0_31_22)">
<path d="M21.875 12.7292C21.875 7.01042 17.4375 3.125 12.5 3.125C7.61462 3.125 3.12504 6.92708 3.12504 12.7917C2.50004 13.1458 2.08337 13.8125 2.08337 14.5833V16.6667C2.08337 17.8125 3.02087 18.75 4.16671 18.75H5.20837V12.3958C5.20837 8.36458 8.46879 5.10417 12.5 5.10417C16.5313 5.10417 19.7917 8.36458 19.7917 12.3958V19.7917H11.4584V21.875H19.7917C20.9375 21.875 21.875 20.9375 21.875 19.7917V18.5208C22.4896 18.1979 22.9167 17.5625 22.9167 16.8125V14.4167C22.9167 13.6875 22.4896 13.0521 21.875 12.7292Z" fill="white"/>
<path d="M9.37504 14.5833C9.95034 14.5833 10.4167 14.117 10.4167 13.5417C10.4167 12.9664 9.95034 12.5 9.37504 12.5C8.79974 12.5 8.33337 12.9664 8.33337 13.5417C8.33337 14.117 8.79974 14.5833 9.37504 14.5833Z" fill="white"/>
<path d="M15.625 14.5833C16.2003 14.5833 16.6667 14.117 16.6667 13.5417C16.6667 12.9664 16.2003 12.5 15.625 12.5C15.0497 12.5 14.5834 12.9664 14.5834 13.5417C14.5834 14.117 15.0497 14.5833 15.625 14.5833Z" fill="white"/>
<path d="M18.75 11.4896C18.25 8.52083 15.6667 6.25 12.5521 6.25C9.39582 6.25 5.99999 8.86458 6.27082 12.9688C8.84374 11.9167 10.7812 9.625 11.3333 6.83333C12.6979 9.57292 15.5 11.4583 18.75 11.4896Z" fill="white"/>
</g>
<defs>
<clipPath id="clip0_31_22">
<rect width="25" height="25" fill="white"/>
</clipPath>
</defs>
</svg>
